<?xml version="1.0" standalone="no"?>
<!DOCTYPE svg PUBLIC "-//W3C//DTD SVG 20010904//EN"
 "http://www.w3.org/TR/2001/REC-SVG-20010904/DTD/svg10.dtd">
<svg version="1.0" xmlns="http://www.w3.org/2000/svg"
 width="96.000000pt" height="96.000000pt" viewBox="0 0 96.000000 96.000000"
 preserveAspectRatio="xMidYMid meet">
<metadata>
Created by potrace 1.14, written by Peter Selinger 2001-2017
</metadata>
<g transform="translate(0.000000,96.000000) scale(0.100000,-0.100000)"
fill="#000000" stroke="none">
<path d="M77 797 c-9 -12 -17 -27 -17 -34 0 -7 -3 -13 -7 -13 -10 0 -10 -71 0
-87 5 -7 4 -13 -2 -13 -6 0 -10 -6 -9 -12 2 -7 -4 -13 -12 -13 -23 0 -30 -16
-30 -72 0 -36 4 -52 12 -50 18 3 22 -35 4 -45 -11 -6 -16 -24 -16 -59 0 -43 3
-51 23 -58 21 -8 24 -16 25 -63 2 -77 5 -90 27 -114 23 -24 59 -21 47 5 -5 9
-7 27 -5 41 2 14 3 36 3 50 -1 14 -1 34 -1 44 0 27 21 46 22 20 1 -10 2 -32 3
-49 1 -16 -3 -36 -8 -42 -5 -8 -5 -13 1 -13 5 0 9 -12 10 -28 1 -52 1 -52 36
-46 17 4 43 13 56 21 13 8 20 10 17 4 -11 -17 2 -13 22 7 11 9 38 33 62 51 23
19 48 41 55 48 7 6 15 9 19 6 3 -4 6 -1 6 6 0 7 4 10 9 7 5 -3 14 1 21 9 7 8
16 13 20 10 5 -3 11 -1 15 5 4 6 11 8 16 5 18 -12 8 12 -13 31 -16 13 -19 14
-10 2 10 -12 10 -18 1 -24 -8 -5 -9 -3 -4 6 5 8 3 11 -6 8 -8 -3 -22 -1 -33 4
-10 6 -16 6 -13 1 6 -10 -104 -10 -121 1 -7 4 -12 2 -12 -4 0 -6 -4 -8 -10 -5
-6 4 -5 11 2 19 13 13 67 14 89 1 7 -5 10 -4 6 2 -4 6 8 10 31 9 22 -1 40 -7
44 -16 6 -13 7 -13 7 1 1 13 13 15 66 15 36 -1 65 -5 65 -9 0 -5 5 -5 11 -2
17 11 89 11 89 0 0 -7 3 -7 8 0 11 15 55 18 46 2 -6 -9 -5 -9 7 0 8 7 24 12
34 12 31 -1 52 6 71 21 16 13 17 13 9 0 -7 -12 -6 -13 7 -3 8 7 18 10 21 6 4
-3 7 -1 7 5 0 7 5 12 11 12 17 0 49 40 49 62 0 21 -22 48 -39 48 -6 0 -11 4
-11 8 0 8 -58 32 -95 40 -11 2 -44 5 -72 5 -29 1 -53 6 -53 10 0 5 -5 5 -11 2
-17 -11 -89 -11 -93 0 -3 6 -5 4 -5 -4 -1 -11 -4 -11 -16 -1 -8 7 -15 8 -15 3
0 -12 -102 -9 -121 2 -6 5 -10 4 -6 -1 3 -5 -27 -9 -67 -9 -62 0 -72 2 -69 16
5 17 59 19 84 4 7 -5 10 -4 6 1 -3 6 15 9 44 8 27 -1 52 2 55 7 2 4 11 6 19 2
8 -3 15 1 15 8 0 7 -3 10 -6 6 -7 -7 -80 28 -106 51 -10 8 -18 13 -18 10 0 -3
-18 13 -41 34 -44 42 -106 74 -156 81 -38 6 -41 1 -38 -80 1 -38 -3 -63 -9
-63 -6 0 -6 -4 1 -11 6 -6 9 -18 6 -25 -6 -17 -20 -18 -20 -1 0 6 -3 22 -7 35
-4 12 -3 22 2 22 10 0 10 55 0 65 -4 4 -3 17 2 30 12 32 -20 40 -43 12z m683
-278 c0 -5 -1 -10 -2 -11 -1 -2 4 -14 11 -27 8 -14 9 -21 2 -17 -7 5 -11 -2
-11 -17 0 -20 -4 -24 -20 -20 -15 4 -19 11 -15 24 4 11 2 19 -6 19 -8 0 -7 5
2 17 10 12 11 17 2 20 -7 2 -10 10 -7 18 6 14 44 9 44 -6z"/>
<path d="M474 609 c-4 -7 -3 -9 4 -5 5 3 13 0 15 -6 4 -9 6 -10 6 -1 1 17 -16
25 -25 12z"/>
<path d="M515 600 c3 -5 8 -10 11 -10 2 0 4 5 4 10 0 6 -5 10 -11 10 -5 0 -7
-4 -4 -10z"/>
<path d="M515 361 c-3 -5 -2 -12 3 -15 5 -3 9 1 9 9 0 17 -3 19 -12 6z"/>
</g>
</svg>
